<svg
    xmlns="http://www.w3.org/2000/svg"
    width="800"
    height="600"
    viewBox="0.0 0.0 800 600"
    version="1.1"
    fill="#1e1e2e"
>
    <!-- Uno -->
    <path fill="inherit" d="M435.6 22.25 L433.48 18.96 L431.07 15.89 L428.37 13.05 L425.41 10.49 L422.22 8.22 L418.84 6.27 L415.28 4.64 L411.58 3.36 L407.78 2.44 L403.91 1.88 L400 1.7 L396.09 1.88 L392.22 2.44 L388.42 3.36 L384.72 4.64 L381.16 6.27 L377.78 8.22 L374.59 10.49 L371.63 13.05 L368.93 15.89 L366.52 18.96 L364.4 22.25 L265.75 193.12 L263.95 196.6 L262.5 200.23 L261.4 203.99 L260.66 207.83 L260.29 211.72 L260.29 215.63 L260.66 219.53 L261.4 223.37 L262.5 227.12 L263.95 230.75 L265.75 234.23 L267.86 237.52 L270.28 240.6 L272.98 243.43 L275.94 245.99 L279.12 248.26 L282.51 250.21 L286.07 251.84 L289.76 253.12 L293.57 254.04 L297.44 254.6 L301.35 254.78 L498.65 254.78 L502.56 254.6 L506.43 254.04 L510.24 253.12 L513.93 251.84 L517.49 250.21 L520.88 248.26 L524.06 245.99 L527.02 243.43 L529.72 240.6 L532.14 237.52 L534.25 234.23 L536.05 230.75 L537.5 227.12 L538.6 223.37 L539.34 219.53 L539.71 215.63 L539.71 211.72 L539.34 207.83 L538.6 203.99 L537.5 200.23 L536.05 196.6 L534.25 193.12 Z" />
    <!-- Dos -->
    <path fill="inherit" d="M237.27 365.77 L235.15 362.48 L232.74 359.4 L230.04 356.57 L227.08 354.01 L223.89 351.74 L220.51 349.79 L216.95 348.16 L213.25 346.88 L209.45 345.96 L205.58 345.4 L201.67 345.22 L197.76 345.4 L193.89 345.96 L190.09 346.88 L186.39 348.16 L182.83 349.79 L179.45 351.74 L176.26 354.01 L173.3 356.57 L170.6 359.4 L168.19 362.48 L166.07 365.77 L67.42 536.64 L65.62 540.12 L64.17 543.75 L63.07 547.51 L62.33 551.35 L61.96 555.24 L61.96 559.15 L62.33 563.05 L63.07 566.89 L64.17 570.64 L65.62 574.27 L67.42 577.75 L69.53 581.04 L71.95 584.11 L74.65 586.95 L77.61 589.51 L80.79 591.78 L84.18 593.73 L87.74 595.36 L91.43 596.64 L95.24 597.56 L99.11 598.12 L103.02 598.3 L300.32 598.3 L304.23 598.12 L308.1 597.56 L311.9 596.64 L315.6 595.36 L319.16 593.73 L322.55 591.78 L325.73 589.51 L328.69 586.95 L331.39 584.11 L333.81 581.04 L335.92 577.75 L337.71 574.27 L339.17 570.64 L340.27 566.89 L341.01 563.05 L341.38 559.15 L341.38 555.24 L341.01 551.35 L340.27 547.51 L339.17 543.75 L337.71 540.12 L335.92 536.64 L237.27 365.77 Z" />
    <!-- Tres -->
    <path fill="inherit" d="M301.35 287.67 L297.44 287.85 L293.57 288.41 L289.76 289.33 L286.07 290.61 L282.51 292.24 L279.12 294.19 L275.94 296.46 L272.98 299.02 L270.28 301.86 L267.86 304.93 L265.75 308.22 L263.95 311.7 L262.5 315.33 L261.4 319.08 L260.66 322.92 L260.29 326.82 L260.29 330.73 L260.66 334.62 L261.4 338.47 L262.5 342.22 L263.95 345.85 L265.75 349.33 L364.4 520.2 L366.52 523.49 L368.93 526.57 L371.63 529.4 L374.59 531.96 L377.78 534.23 L381.16 536.18 L384.72 537.81 L388.42 539.09 L392.22 540.01 L396.09 540.57 L400 540.75 L403.91 540.57 L407.78 540.01 L411.58 539.09 L415.28 537.81 L418.84 536.18 L422.22 534.23 L425.41 531.96 L428.37 529.4 L431.07 526.57 L433.48 523.49 L435.6 520.2 L534.25 349.33 L536.05 345.85 L537.5 342.22 L538.6 338.47 L539.34 334.62 L539.71 330.73 L539.71 326.82 L539.34 322.92 L538.6 319.08 L537.5 315.33 L536.05 311.7 L534.25 308.22 L532.14 304.93 L529.72 301.86 L527.02 299.02 L524.06 296.46 L520.88 294.19 L517.49 292.24 L513.93 290.61 L510.24 289.33 L506.43 288.41 L502.56 287.85 L498.65 287.67 L301.35 287.67 Z" />
    <!-- Cuatro -->
    <path fill="inherit" d="M633.93 365.77 L631.81 362.48 L629.4 359.4 L626.7 356.57 L623.74 354.01 L620.55 351.74 L617.17 349.79 L613.61 348.16 L609.91 346.88 L606.11 345.96 L602.24 345.4 L598.33 345.22 L594.42 345.4 L590.55 345.96 L586.75 346.88 L583.05 348.16 L579.49 349.79 L576.11 351.74 L572.92 354.01 L569.96 356.57 L567.26 359.4 L564.85 362.48 L562.73 365.77 L464.08 536.64 L462.29 540.12 L460.83 543.75 L459.73 547.51 L458.99 551.35 L458.62 555.24 L458.62 559.15 L458.99 563.05 L459.73 566.89 L460.83 570.64 L462.29 574.27 L464.08 577.75 L466.19 581.04 L468.61 584.11 L471.31 586.95 L474.27 589.51 L477.45 591.78 L480.84 593.73 L484.4 595.36 L488.1 596.64 L491.9 597.56 L495.77 598.12 L499.68 598.3 L696.98 598.3 L700.89 598.12 L704.76 597.56 L708.57 596.64 L712.26 595.36 L715.82 593.73 L719.21 591.78 L722.39 589.51 L725.35 586.95 L728.05 584.11 L730.47 581.04 L732.58 577.75 L734.38 574.27 L735.83 570.64 L736.93 566.89 L737.67 563.05 L738.04 559.15 L738.04 555.24 L737.67 551.35 L736.93 547.51 L735.83 543.75 L734.38 540.12 L732.58 536.64 L732.58 536.64 L633.93 365.77 Z" />
</svg>
